TITLE ""
FILE "2Q_t_0301-0317.mp3" MP3
  TRACK 01 AUDIO
    TITLE "2Q_t_0301-0317_01"
    INDEX 01 00:00:00
  TRACK 02 AUDIO
    TITLE "2Q_t_0301-0317_02"
    INDEX 01 00:00:12
  TRACK 03 AUDIO
    TITLE "2Q_t_0301-0317_03"
    INDEX 01 00:01:51
  TRACK 04 AUDIO
    TITLE "2Q_t_0301-0317_04"
    INDEX 01 00:02:21
  TRACK 05 AUDIO
    TITLE "2Q_t_0301-0317_05"
    INDEX 01 00:03:30
  TRACK 06 AUDIO
    TITLE "2Q_t_0301-0317_06"
    INDEX 01 00:04:02
  TRACK 07 AUDIO
    TITLE "2Q_t_0301-0317_07"
    INDEX 01 00:05:13
  TRACK 08 AUDIO
    TITLE "2Q_t_0301-0317_08"
    INDEX 01 00:05:66
  TRACK 09 AUDIO
    TITLE "2Q_t_0301-0317_09"
    INDEX 01 00:07:34
  TRACK 10 AUDIO
    TITLE "2Q_t_0301-0317_10"
    INDEX 01 00:08:04
  TRACK 11 AUDIO
    TITLE "2Q_t_0301-0317_11"
    INDEX 01 00:09:17
  TRACK 12 AUDIO
    TITLE "2Q_t_0301-0317_12"
    INDEX 01 00:09:72
  TRACK 13 AUDIO
    TITLE "2Q_t_0301-0317_13"
    INDEX 01 00:11:12
  TRACK 14 AUDIO
    TITLE "2Q_t_0301-0317_14"
    INDEX 01 00:11:57
  TRACK 15 AUDIO
    TITLE "2Q_t_0301-0317_15"
    INDEX 01 00:13:05
  TRACK 16 AUDIO
    TITLE "2Q_t_0301-0317_16"
    INDEX 01 00:13:52
  TRACK 17 AUDIO
    TITLE "2Q_t_0301-0317_17"
    INDEX 01 00:15:14
  TRACK 18 AUDIO
    TITLE "2Q_t_0301-0317_18"
    INDEX 01 00:15:59
  TRACK 19 AUDIO
    TITLE "2Q_t_0301-0317_19"
    INDEX 01 00:17:07
  TRACK 20 AUDIO
    TITLE "2Q_t_0301-0317_20"
    INDEX 01 00:17:58
  TRACK 21 AUDIO
    TITLE "2Q_t_0301-0317_21"
    INDEX 01 00:19:21
  TRACK 22 AUDIO
    TITLE "2Q_t_0301-0317_22"
    INDEX 01 00:19:64
  TRACK 23 AUDIO
    TITLE "2Q_t_0301-0317_23"
    INDEX 01 00:21:12
  TRACK 24 AUDIO
    TITLE "2Q_t_0301-0317_24"
    INDEX 01 00:21:59
  TRACK 25 AUDIO
    TITLE "2Q_t_0301-0317_25"
    INDEX 01 00:23:52
  TRACK 26 AUDIO
    TITLE "2Q_t_0301-0317_26"
    INDEX 01 00:24:25
  TRACK 27 AUDIO
    TITLE "2Q_t_0301-0317_27"
    INDEX 01 00:25:32
  TRACK 28 AUDIO
    TITLE "2Q_t_0301-0317_28"
    INDEX 01 00:26:04
  TRACK 29 AUDIO
    TITLE "2Q_t_0301-0317_29"
    INDEX 01 00:29:35
  TRACK 30 AUDIO
    TITLE "2Q_t_0301-0317_30"
    INDEX 01 00:30:04
  TRACK 31 AUDIO
    TITLE "2Q_t_0301-0317_31"
    INDEX 01 00:31:27
  TRACK 32 AUDIO
    TITLE "2Q_t_0301-0317_32"
    INDEX 01 00:32:02
  TRACK 33 AUDIO
    TITLE "2Q_t_0301-0317_33"
    INDEX 01 00:35:11
  TRACK 34 AUDIO
    TITLE "2Q_t_0301-0317_34"
    INDEX 01 00:35:56
  TRACK 35 AUDIO
    TITLE "2Q_t_0301-0317_35"
    INDEX 01 00:36:63
  TRACK 36 AUDIO
    TITLE "2Q_t_0301-0317_36"
    INDEX 01 00:37:35
  TRACK 37 AUDIO
    TITLE "2Q_t_0301-0317_37"
    INDEX 01 00:40:49
  TRACK 38 AUDIO
    TITLE "2Q_t_0301-0317_38"
    INDEX 01 00:41:21
  TRACK 39 AUDIO
    TITLE "2Q_t_0301-0317_39"
    INDEX 01 00:42:42
  TRACK 40 AUDIO
    TITLE "2Q_t_0301-0317_40"
    INDEX 01 00:43:24
  TRACK 41 AUDIO
    TITLE "2Q_t_0301-0317_41"
    INDEX 01 00:44:53
  TRACK 42 AUDIO
    TITLE "2Q_t_0301-0317_42"
    INDEX 01 00:45:25
  TRACK 43 AUDIO
    TITLE "2Q_t_0301-0317_43"
    INDEX 01 00:46:42
  TRACK 44 AUDIO
    TITLE "2Q_t_0301-0317_44"
    INDEX 01 00:47:14
  TRACK 45 AUDIO
    TITLE "2Q_t_0301-0317_45"
    INDEX 01 00:49:66
  TRACK 46 AUDIO
    TITLE "2Q_t_0301-0317_46"
    INDEX 01 00:50:36
  TRACK 47 AUDIO
    TITLE "2Q_t_0301-0317_47"
    INDEX 01 00:51:66
  TRACK 48 AUDIO
    TITLE "2Q_t_0301-0317_48"
    INDEX 01 00:52:36
  TRACK 49 AUDIO
    TITLE "2Q_t_0301-0317_49"
    INDEX 01 00:57:06
  TRACK 50 AUDIO
    TITLE "2Q_t_0301-0317_50"
    INDEX 01 00:57:49
  TRACK 51 AUDIO
    TITLE "2Q_t_0301-0317_51"
    INDEX 01 00:58:68
  TRACK 52 AUDIO
    TITLE "2Q_t_0301-0317_52"
    INDEX 01 00:59:42
  TRACK 53 AUDIO
    TITLE "2Q_t_0301-0317_53"
    INDEX 01 01:02:23
  TRACK 54 AUDIO
    TITLE "2Q_t_0301-0317_54"
    INDEX 01 01:02:66
  TRACK 55 AUDIO
    TITLE "2Q_t_0301-0317_55"
    INDEX 01 01:04:34
  TRACK 56 AUDIO
    TITLE "2Q_t_0301-0317_56"
    INDEX 01 01:05:04
  TRACK 57 AUDIO
    TITLE "2Q_t_0301-0317_57"
    INDEX 01 01:06:46
  TRACK 58 AUDIO
    TITLE "2Q_t_0301-0317_58"
    INDEX 01 01:07:16
  TRACK 59 AUDIO
    TITLE "2Q_t_0301-0317_59"
    INDEX 01 01:08:18
  TRACK 60 AUDIO
    TITLE "2Q_t_0301-0317_60"
    INDEX 01 01:08:67
  TRACK 61 AUDIO
    TITLE "2Q_t_0301-0317_61"
    INDEX 01 01:10:32
  TRACK 62 AUDIO
    TITLE "2Q_t_0301-0317_62"
    INDEX 01 01:11:03
  TRACK 63 AUDIO
    TITLE "2Q_t_0301-0317_63"
    INDEX 01 01:12:24
  TRACK 64 AUDIO
    TITLE "2Q_t_0301-0317_64"
    INDEX 01 01:12:71
  TRACK 65 AUDIO
    TITLE "2Q_t_0301-0317_65"
    INDEX 01 01:14:17
  TRACK 66 AUDIO
    TITLE "2Q_t_0301-0317_66"
    INDEX 01 01:14:62
  TRACK 67 AUDIO
    TITLE "2Q_t_0301-0317_67"
    INDEX 01 01:15:69
  TRACK 68 AUDIO
    TITLE "2Q_t_0301-0317_68"
    INDEX 01 01:16:39
  TRACK 69 AUDIO
    TITLE "2Q_t_0301-0317_69"
    INDEX 01 01:17:60
  TRACK 70 AUDIO
    TITLE "2Q_t_0301-0317_70"
    INDEX 01 01:18:30
  TRACK 71 AUDIO
    TITLE "2Q_t_0301-0317_71"
    INDEX 01 01:19:27
  TRACK 72 AUDIO
    TITLE "2Q_t_0301-0317_72"
    INDEX 01 01:19:75
  TRACK 73 AUDIO
    TITLE "2Q_t_0301-0317_73"
    INDEX 01 01:21:42
